<svg xmlns="http://www.w3.org/2000/svg" viewBox="0 0 140 150" fill="none">
  <g stroke="#d6b751" stroke-linecap="round" stroke-linejoin="round">
    <path d="M70 12c-31 0-49 21-49 51 0 19 8 31 19 40v22l15 13h30l15-13v-22c11-9 19-21 19-40 0-30-18-51-49-51Z" stroke-width="4"/>
    <path d="M34 59c0-12 8-19 21-19 11 0 17 7 17 17 0 13-9 22-22 22-10 0-16-8-16-20ZM106 59c0-12-8-19-21-19-11 0-17 7-17 17 0 13 9 22 22 22 10 0 16-8 16-20Z" stroke-width="3"/>
    <path d="m70 76-9 19h18l-9-19ZM50 112h40M58 112v18M70 112v20M82 112v18" stroke-width="3"/>
    <circle cx="70" cy="75" r="49" stroke-width="1" opacity=".35"/>
  </g>
</svg>
