<svg xmlns="http://www.w3.org/2000/svg" viewBox="0 0 1600 900" role="img" aria-labelledby="title desc">
  <title id="title">Мафия</title>
  <desc id="desc">Семь участников за круглым столом и запечатанная записка под шляпой</desc>

  <defs>
    <pattern id="grid" width="80" height="80" patternUnits="userSpaceOnUse">
      <path d="M80 0H0V80" fill="none" stroke="#F5EFE4" stroke-opacity=".035"/>
    </pattern>

    <g id="player">
      <rect x="-52" y="-62" width="104" height="124" rx="14" fill="#4A1322" stroke="#D6B751" stroke-width="4"/>
      <circle cy="-17" r="22" fill="#071C2E" stroke="#D6B751" stroke-width="4"/>
      <path d="M-32 42C-28 14 28 14 32 42" fill="#071C2E" stroke="#D6B751" stroke-width="4" stroke-linecap="round"/>
    </g>
  </defs>

  <rect width="1600" height="900" fill="#071C2E"/>
  <rect width="1600" height="900" fill="url(#grid)"/>

  <g fill="none" stroke="#D6B751">
    <rect x="28" y="28" width="1544" height="844" rx="8" stroke-width="4"/>
    <rect x="44" y="44" width="1512" height="812" rx="5" stroke-width="1" opacity=".55"/>
  </g>

  <g fill="none" stroke="#D6B751" stroke-width="6" stroke-linecap="square">
    <path d="M28 128V28H128M1472 28h100v100M1572 772v100h-100M128 872H28V772"/>
    <path d="M50 102L102 50M1498 50l52 52M1550 798l-52 52M102 850l-52-52" opacity=".75"/>
  </g>

  <g fill="none" stroke="#D6B751" stroke-width="4" opacity=".32">
    <path d="M74 625h250V510h36v115h32V452h48v173h42V534h40v91h42"/>
    <path d="M1036 625h66V520h34v105h42V470h52v155h34V540h46v85h216"/>
  </g>

  <path d="M188 177a58 58 0 1 0 71 79 68 68 0 1 1-71-79Z" fill="#D6B751"/>
  <g fill="#D6B751">
    <circle cx="321" cy="163" r="5"/>
    <circle cx="1271" cy="157" r="5"/>
    <circle cx="1394" cy="239" r="4"/>
  </g>

  <circle cx="800" cy="455" r="310" fill="#0B2942" stroke="#D6B751" stroke-width="5"/>
  <circle cx="800" cy="455" r="278" fill="none" stroke="#D6B751" stroke-width="2" stroke-dasharray="5 16" opacity=".55"/>
  <circle cx="800" cy="455" r="218" fill="#061827" stroke="#D6B751" stroke-width="5"/>

  <g fill="none" stroke="#8F3045" stroke-width="5" opacity=".9">
    <path d="M800 455L800 168M800 455L1042 260M800 455L1116 505M800 455L982 731"/>
    <path d="M800 455L618 731M800 455L484 505M800 455L558 260" opacity=".45"/>
  </g>

  <g>
    <g transform="translate(800 155)"><use href="#player"/></g>
    <g transform="translate(1048 270) rotate(38)"><use href="#player"/></g>
    <g transform="translate(1114 523) rotate(79)"><use href="#player"/></g>
    <g transform="translate(972 734) rotate(154)"><use href="#player"/></g>
    <g transform="translate(628 734) rotate(-154)"><use href="#player"/></g>
    <g transform="translate(486 523) rotate(-79)"><use href="#player"/></g>
    <g transform="translate(552 270) rotate(-38)"><use href="#player"/></g>
  </g>

  <g transform="rotate(-5 800 470)">
    <rect x="622" y="354" width="356" height="242" rx="9" fill="#F5EFE4" stroke="#D6B751" stroke-width="8"/>
    <rect x="641" y="373" width="318" height="204" rx="4" fill="none" stroke="#4A1322" stroke-width="3" opacity=".55"/>
    <path d="M641 373L800 487 959 373" fill="none" stroke="#D6B751" stroke-width="3" opacity=".7"/>
    <circle cx="800" cy="548" r="39" fill="#4A1322" stroke="#D6B751" stroke-width="5"/>
    <circle cx="800" cy="548" r="22" fill="none" stroke="#8F3045" stroke-width="4"/>
  </g>

  <g>
    <ellipse cx="800" cy="365" rx="176" ry="45" fill="#061827" stroke="#D6B751" stroke-width="6"/>
    <path d="M691 348L715 206Q800 169 885 206L909 348Q800 392 691 348Z" fill="#071C2E" stroke="#D6B751" stroke-width="6"/>
    <path d="M699 310Q800 347 901 310L907 348Q800 390 693 348Z" fill="#4A1322"/>
    <path d="M699 310Q800 347 901 310" fill="none" stroke="#8F3045" stroke-width="5"/>
  </g>

  <g fill="#D6B751">
    <circle cx="800" cy="98" r="7"/>
    <circle cx="776" cy="98" r="3"/>
    <circle cx="824" cy="98" r="3"/>
    <circle cx="800" cy="805" r="7"/>
    <circle cx="776" cy="805" r="3"/>
    <circle cx="824" cy="805" r="3"/>
  </g>
</svg>
